<svg width="16" height="16" viewBox="0 0 16 16" xmlns="http://www.w3.org/2000/svg">
  <defs>
    <linearGradient id="favicon16Gradient" x1="0%" y1="0%" x2="100%" y2="100%">
      <stop offset="0%" style="stop-color:#007AFF;stop-opacity:1" />
      <stop offset="50%" style="stop-color:#5856D6;stop-opacity:1" />
      <stop offset="100%" style="stop-color:#007AFF;stop-opacity:1" />
    </linearGradient>
  </defs>
  
  <!-- Background -->
  <rect width="16" height="16" rx="3" fill="#F7F5F1"/>
  
  <!-- Simplified cat for 16x16 -->
  <g fill="url(#favicon16Gradient)">
    <!-- Cat body -->
    <path d="M8 3 C11 3, 13 4.5, 13 8 C13 10, 12 12, 10 13 L6 13 C4 12, 3 10, 3 8 C3 4.5, 5 3, 8 3 Z"/>
    
    <!-- Cat ears -->
    <path d="M6 2 L6 4 L5 4 C5 2.5, 5.5 2, 6 2 Z"/>
    <path d="M10 4 L11 4 C11 2.5, 10.5 2, 10 2 Z"/>
    
    <!-- H letter -->
    <rect x="6.5" y="6" width="0.8" height="4" fill="white" opacity="0.9"/>
    <rect x="8.7" y="6" width="0.8" height="4" fill="white" opacity="0.9"/>
    <rect x="6.5" y="7.6" width="3" height="0.8" fill="white" opacity="0.9"/>
  </g>
</svg>
