<svg width="32" height="32" viewBox="0 0 32 32" xmlns="http://www.w3.org/2000/svg">
  <defs>
    <linearGradient id="faviconGradient" x1="0%" y1="0%" x2="100%" y2="100%">
      <stop offset="0%" style="stop-color:#007AFF;stop-opacity:1" />
      <stop offset="100%" style="stop-color:#5856D6;stop-opacity:1" />
    </linearGradient>
  </defs>
  
  <!-- Simplified cat silhouette for favicon -->
  <g fill="url(#faviconGradient)">
    <!-- Cat body -->
    <path d="M16 8 C20 8, 24 10, 26 14 L26 24 C26 26, 24 28, 22 28 L10 28 C8 28, 6 26, 6 24 L6 14 C8 10, 12 8, 16 8 Z"/>
    
    <!-- Cat ears -->
    <path d="M10 6 C10 4, 12 3, 14 4 L14 8 L10 8 Z"/>
    <path d="M18 8 L18 4 C20 3, 22 4, 22 6 L22 8 Z"/>
    
    <!-- H letter -->
    <rect x="12" y="12" width="2" height="8" fill="white"/>
    <rect x="18" y="12" width="2" height="8" fill="white"/>
    <rect x="12" y="15" width="8" height="2" fill="white"/>
    
    <!-- Cat tail -->
    <path d="M26 20 C28 20, 30 22, 30 24 C30 26, 28 28, 26 28"/>
  </g>
</svg>
