<svg width="32" height="32" viewBox="0 0 32 32" xmlns="http://www.w3.org/2000/svg">
  <defs>
    <linearGradient id="faviconGradient" x1="0%" y1="0%" x2="100%" y2="100%">
      <stop offset="0%" style="stop-color:#007AFF;stop-opacity:1" />
      <stop offset="50%" style="stop-color:#5856D6;stop-opacity:1" />
      <stop offset="100%" style="stop-color:#007AFF;stop-opacity:1" />
    </linearGradient>
    <linearGradient id="backgroundGradient" x1="0%" y1="0%" x2="100%" y2="100%">
      <stop offset="0%" style="stop-color:#F7F5F1;stop-opacity:1" />
      <stop offset="100%" style="stop-color:#FFFFFF;stop-opacity:1" />
    </linearGradient>
  </defs>
  
  <!-- Background -->
  <rect width="32" height="32" rx="6" fill="url(#backgroundGradient)"/>
  
  <!-- Simplified cat silhouette inspired by your logo -->
  <g fill="url(#faviconGradient)">
    <!-- Main cat body - simplified version of your logo shape -->
    <path d="M16 6 C22 6, 26 9, 26 16 C26 20, 24 24, 20 26 L12 26 C8 24, 6 20, 6 16 C6 9, 10 6, 16 6 Z"/>
    
    <!-- Cat ears -->
    <path d="M11 4 C11 3, 12 2, 13 3 L13 7 L11 7 Z"/>
    <path d="M19 7 L19 3 C20 2, 21 3, 21 4 L21 7 Z"/>
    
    <!-- H letter integration -->
    <rect x="13" y="11" width="1.5" height="7" fill="white" opacity="0.9"/>
    <rect x="17.5" y="11" width="1.5" height="7" fill="white" opacity="0.9"/>
    <rect x="13" y="14" width="6" height="1.5" fill="white" opacity="0.9"/>
    
    <!-- Subtle cat features -->
    <ellipse cx="13.5" cy="13" rx="0.5" ry="0.3" fill="#F7F5F1"/>
    <ellipse cx="18.5" cy="13" rx="0.5" ry="0.3" fill="#F7F5F1"/>
  </g>
  
  <!-- Subtle shadow for depth -->
  <ellipse cx="16" cy="28" rx="8" ry="2" fill="rgba(0,122,255,0.1)"/>
</svg>
