<?xml version="1.0" standalone="no"?>
<!DOCTYPE svg PUBLIC "-//W3C//DTD SVG 20010904//EN"
 "http://www.w3.org/TR/2001/REC-SVG-20010904/DTD/svg10.dtd">
<svg version="1.0" xmlns="http://www.w3.org/2000/svg"
 width="1024.000000pt" height="1024.000000pt" viewBox="0 0 1024.000000 1024.000000"
 preserveAspectRatio="xMidYMid meet">

<g transform="translate(0.000000,1024.000000) scale(0.100000,-0.100000)"
fill="#000000" stroke="none">
<path d="M6317 8574 c-82 -29 -272 -175 -464 -357 -56 -53 -107 -97 -113 -97
-5 0 -45 10 -87 22 -70 20 -100 23 -283 23 -184 0 -214 -3 -293 -24 l-87 -23
-123 118 c-237 231 -412 353 -488 342 -36 -5 -58 -47 -69 -128 -25 -197 2
-445 71 -653 33 -102 35 -129 13 -246 -12 -62 -15 -122 -12 -216 6 -155 25
-214 118 -365 122 -197 149 -307 135 -535 l-7 -115 -368 0 c-315 0 -369 2
-380 15 -10 12 -11 114 -7 463 5 459 11 530 48 568 8 7 43 21 79 30 36 9 71
21 78 26 16 14 15 83 -2 97 -9 8 -129 10 -422 9 l-409 -3 -3 -37 c-4 -45 15
-88 29 -67 6 9 9 10 9 2 0 -6 20 -15 44 -18 60 -9 104 -38 124 -83 16 -34 17
-128 17 -1182 0 -911 -3 -1154 -13 -1188 -16 -53 -50 -76 -138 -92 -75 -14
-89 -27 -81 -76 11 -67 -12 -64 436 -64 223 0 412 4 418 8 13 8 21 92 10 109
-4 6 -35 16 -69 23 -85 16 -116 35 -136 78 -15 33 -17 93 -17 567 l0 530 361
3 360 2 1 -162 c2 -266 27 -393 134 -664 109 -276 143 -462 144 -774 0 -259
-3 -268 -101 -300 -129 -43 -214 -157 -214 -286 0 -78 -11 -74 214 -74 110 0
206 4 212 8 19 12 34 48 48 119 40 192 41 244 41 1843 l0 1545 -23 42 c-26 50
-40 59 -107 68 -74 11 -85 19 -85 65 0 29 5 42 19 50 21 11 763 12 816 1 26
-5 30 -11 33 -44 4 -52 -8 -63 -77 -71 -36 -4 -69 -15 -85 -27 -57 -45 -55
-17 -58 -1319 l-3 -1195 -36 -90 c-58 -145 -78 -266 -92 -554 l-2 -54 -53 -16
c-72 -22 -119 -63 -150 -129 -29 -64 -42 -185 -23 -220 l12 -22 934 0 934 0
10 38 c12 40 15 161 5 186 -9 24 -36 19 -77 -15 -74 -61 -241 -109 -380 -109
-202 0 -435 113 -572 278 -62 74 -125 196 -150 287 -26 95 -31 285 -10 386 56
280 229 470 429 472 128 1 176 -32 176 -121 0 -48 -14 -62 -108 -107 -244
-117 -329 -394 -200 -655 66 -134 228 -259 377 -291 82 -17 272 -6 346 20 226
81 318 310 318 786 -1 305 -42 543 -140 795 -125 324 -263 503 -528 684 -168
114 -212 161 -246 264 -30 91 -24 236 16 342 66 179 78 230 79 340 0 79 -6
124 -22 183 -28 98 -28 101 9 227 55 190 73 323 73 540 1 178 -1 198 -19 229
-25 43 -50 52 -98 35z"/>
</g>
</svg>
